<svg width="42" height="28" fill="none" xmlns="http://www.w3.org/2000/svg">
    <path d="M38.199 0H4.2C1.89 0 0.021 1.575 0.021 3.5V10.5C2.331 10.5 4.2 12.075 4.2 14C4.2 15.925 2.331 17.5 0 17.5V24.5C0 26.425 1.89 28 4.2 28H37.8C40.11 28 42 26.425 42 24.5V3.5C42 1.575 40.299 0 38.199 0ZM37.8 24.5H4.2V20.055C6.699 18.8475 8.4 16.5725 8.4 14C8.4 11.41 6.72 9.1525 4.221 7.945L4.2 3.5H37.8V24.5ZM14.427 20.405L10.941 15.365L12.894 14.9275L15.54 16.66L20.559 15.54L15.519 8.26L18.459 7.595L26.88 14.14L32.004 13.0025C32.5219 12.8884 33.0729 12.9494 33.537 13.1723C34.0012 13.3952 34.3408 13.7619 34.482 14.1925C34.6126 14.6285 34.5343 15.0897 34.2638 15.4784C33.9934 15.8671 33.5519 16.1528 33.033 16.275L14.427 20.405Z"
          fill="#183251"/>
</svg>
