<svg width="194" height="194" viewBox="0 0 194 194" fill="none" xmlns="http://www.w3.org/2000/svg">
<path d="M61.9466 67.4149L52.671 55.4475C42.8255 42.7405 51.895 24.2499 67.9606 24.2499C71.877 24.2499 75.6842 25.426 78.9095 27.6449L104.372 45.1049C107.589 40.8382 111.292 36.9604 115.406 33.5498C121.759 28.3845 129.895 24.1893 139.474 24.2499C158.195 24.3712 171.69 38.9575 178.783 48.7909C185.731 58.3939 180.177 70.337 170.393 73.926L143.33 83.8443L105.669 138.164C94.2961 154.569 68.6396 143.354 72.9682 123.857L76.7512 106.797L39.1031 117.406C35.9493 118.296 32.6324 118.443 29.4124 117.835C26.1923 117.228 23.1566 115.884 20.5432 113.907C17.9299 111.93 15.8098 109.375 14.3493 106.442C12.8888 103.508 12.1274 100.277 12.125 96.9999V62.5649C12.125 47.8937 31.9857 43.3225 38.3877 56.5388L45.7234 71.6829L61.9466 67.4149ZM62.2619 48.0149L74.69 64.0684L87.3364 60.734C90.9254 59.8004 94.2476 57.7028 97.0727 54.8049L72.0467 37.6359C70.625 36.6687 68.905 36.2402 67.1957 36.4273C65.4863 36.6144 63.8997 37.4049 62.7209 38.6567C61.5421 39.9086 60.8483 41.5398 60.7641 43.2573C60.68 44.9748 61.211 46.6659 62.2619 48.027V48.0149ZM110.786 56.9874C106.179 63.9593 99.3037 70.1188 90.4161 72.4589L43.9774 84.6809C42.6181 85.0374 41.1773 84.9107 39.9012 84.3224C38.625 83.7341 37.5929 82.7208 36.9812 81.4557L27.4752 61.8253C27.2085 61.2675 26.9054 61.0735 26.6992 60.9765C26.3391 60.838 25.9445 60.8168 25.5716 60.9159C25.1954 60.9911 24.8521 61.1819 24.5895 61.4615C24.4319 61.6434 24.25 61.9587 24.25 62.5649V96.9999C24.25 98.4042 24.5752 99.7894 25.2002 101.047C25.8252 102.305 26.7329 103.4 27.8523 104.248C28.9716 105.096 30.2721 105.674 31.6519 105.935C33.0317 106.196 34.4532 106.134 35.8051 105.754L73.4654 95.1448C75.4851 94.5739 77.6185 94.5371 79.6568 95.038C81.695 95.5389 83.5683 96.5603 85.0935 98.0024C86.6186 99.4444 87.7432 101.258 88.3574 103.265C88.9716 105.272 89.0543 107.404 88.5974 109.452L84.8022 126.512C83.3472 132.999 91.9075 136.746 95.7026 131.277L134.454 75.381C135.166 74.3523 136.178 73.5688 137.352 73.1379L166.209 62.5528C166.947 62.3065 167.622 61.9023 168.188 61.3683C168.753 60.8343 169.195 60.1833 169.483 59.4609C169.71 58.872 169.781 58.2346 169.689 57.6102C169.598 56.9859 169.348 56.3956 168.962 55.8962C162.148 46.4508 151.805 36.4598 139.401 36.3749C133.545 36.3385 128.076 38.8848 123.057 42.9588C118.025 47.0328 113.854 52.3435 110.786 56.9995V56.9874Z" fill="black" fill-opacity="0.19"/>
<path d="M18.1875 169.75C16.5796 169.75 15.0376 170.389 13.9007 171.526C12.7637 172.663 12.125 174.205 12.125 175.812C12.125 177.42 12.7637 178.962 13.9007 180.099C15.0376 181.236 16.5796 181.875 18.1875 181.875H175.812C177.42 181.875 178.962 181.236 180.099 180.099C181.236 178.962 181.875 177.42 181.875 175.812C181.875 174.205 181.236 172.663 180.099 171.526C178.962 170.389 177.42 169.75 175.812 169.75H18.1875Z" fill="black" fill-opacity="0.19"/>
</svg>
