<svg width="258" height="1142" viewBox="0 0 258 1142" fill="none" xmlns="http://www.w3.org/2000/svg">
<path d="M7.00578 420.154V421.022H2.25978V420.154H4.24778V414.162C4.14511 414.302 3.95844 414.461 3.68778 414.638C3.41711 414.816 3.12311 414.97 2.80578 415.1C2.48844 415.222 2.20844 415.282 1.96578 415.282V414.358C2.18044 414.358 2.41378 414.298 2.66578 414.176C2.92711 414.055 3.16978 413.915 3.39378 413.756C3.62711 413.588 3.82311 413.434 3.98178 413.294C4.14044 413.154 4.22911 413.066 4.24778 413.028H5.22778V420.154H7.00578Z" fill="#183251"/>
<path d="M1.93778 498.071C1.93778 497.651 1.98911 497.226 2.09178 496.797C2.20378 496.358 2.42311 495.938 2.74978 495.537C3.08578 495.126 3.58978 494.748 4.26178 494.403C4.53244 494.263 4.81244 494.127 5.10178 493.997C5.39111 493.857 5.66178 493.707 5.91378 493.549C6.16578 493.381 6.37111 493.194 6.52978 492.989C6.68844 492.774 6.76778 492.522 6.76778 492.233C6.76778 491.999 6.69778 491.775 6.55778 491.561C6.41778 491.337 6.21244 491.155 5.94178 491.015C5.67111 490.865 5.33044 490.791 4.91978 490.791C4.52778 490.791 4.17778 490.861 3.86978 491.001C3.57111 491.141 3.31911 491.304 3.11378 491.491C2.91778 491.668 2.76844 491.813 2.66578 491.925L2.06378 491.267C2.11978 491.211 2.22711 491.113 2.38578 490.973C2.54444 490.823 2.74978 490.669 3.00178 490.511C3.26311 490.352 3.56644 490.217 3.91178 490.105C4.25711 489.993 4.64444 489.937 5.07378 489.937C5.64311 489.937 6.12844 490.039 6.52978 490.245C6.94044 490.45 7.25311 490.721 7.46778 491.057C7.68244 491.383 7.78978 491.743 7.78978 492.135C7.78978 492.517 7.70578 492.849 7.53778 493.129C7.37911 493.399 7.16911 493.637 6.90778 493.843C6.65578 494.039 6.38978 494.211 6.10978 494.361C5.83911 494.501 5.59178 494.622 5.36778 494.725C4.77978 495.005 4.31778 495.285 3.98178 495.565C3.64578 495.835 3.39844 496.106 3.23978 496.377C3.09044 496.647 2.98778 496.923 2.93178 497.203H7.94378V498.071H1.93778Z" fill="#183251"/>
<path d="M6.12378 600.249C6.73978 600.352 7.22978 600.632 7.59378 601.089C7.96711 601.546 8.15378 602.111 8.15378 602.783C8.15378 603.343 8.01844 603.833 7.74778 604.253C7.47711 604.682 7.09911 605.014 6.61378 605.247C6.12844 605.49 5.56378 605.611 4.91978 605.611C4.21978 605.611 3.59911 605.466 3.05778 605.177C2.52578 604.897 2.12444 604.505 1.85378 604.001L2.51178 603.399C2.70778 603.81 3.00644 604.136 3.40778 604.379C3.81844 604.622 4.32244 604.743 4.91978 604.743C5.61044 604.743 6.15644 604.57 6.55778 604.225C6.96844 603.889 7.17378 603.404 7.17378 602.769C7.17378 602.134 6.95911 601.63 6.52978 601.257C6.10978 600.874 5.50778 600.683 4.72378 600.683H4.37378V599.871H4.75178C5.47044 599.871 6.02111 599.708 6.40378 599.381C6.78644 599.045 6.97778 598.611 6.97778 598.079C6.97778 597.519 6.78178 597.094 6.38978 596.805C6.00711 596.506 5.52644 596.357 4.94778 596.357C4.41578 596.357 3.94444 596.478 3.53378 596.721C3.13244 596.954 2.82911 597.281 2.62378 597.701L2.00778 597.113C2.24111 596.628 2.63311 596.236 3.18378 595.937C3.73444 595.638 4.35044 595.489 5.03178 595.489C5.61044 595.489 6.11911 595.596 6.55778 595.811C6.99644 596.016 7.34178 596.31 7.59378 596.693C7.84578 597.066 7.97178 597.5 7.97178 597.995C7.97178 598.555 7.80378 599.05 7.46778 599.479C7.14111 599.908 6.69311 600.165 6.12378 600.249Z" fill="#183251"/>
<path d="M6.30578 656.696V654.204H1.64378V653.364L6.61378 646.924H7.25778V653.336H8.48978V654.204H7.25778V656.696H6.30578ZM2.65178 653.336H6.40378V648.422L2.65178 653.336Z" fill="#183251"/>
<path d="M4.98978 707.453C4.28978 707.453 3.65511 707.275 3.08578 706.921C2.51644 706.575 2.09178 706.118 1.81178 705.549L2.44178 705.073C2.70311 705.53 3.05778 705.899 3.50578 706.179C3.96311 706.459 4.46244 706.599 5.00378 706.599C5.47044 706.599 5.88578 706.496 6.24978 706.291C6.62311 706.085 6.91711 705.801 7.13178 705.437C7.35578 705.073 7.46778 704.653 7.46778 704.177C7.46778 703.719 7.36044 703.318 7.14578 702.973C6.94044 702.618 6.65578 702.343 6.29178 702.147C5.93711 701.951 5.53578 701.853 5.08778 701.853C4.65844 701.853 4.24778 701.951 3.85578 702.147C3.46378 702.333 3.14644 702.609 2.90378 702.973H2.02178L3.12778 697.373H7.92978V698.255H3.84178L3.15578 701.825C3.39844 701.563 3.69711 701.363 4.05178 701.223C4.40644 701.073 4.78911 700.999 5.19978 700.999C5.80644 700.999 6.35244 701.134 6.83778 701.405C7.33244 701.675 7.72444 702.049 8.01378 702.525C8.30311 703.001 8.44778 703.547 8.44778 704.163C8.44778 704.825 8.28911 705.399 7.97178 705.885C7.66378 706.379 7.24844 706.762 6.72578 707.033C6.20311 707.313 5.62444 707.453 4.98978 707.453Z" fill="#183251"/>
<path d="M8.98664 794.389C8.98664 795.024 8.82798 795.598 8.51065 796.111C8.20264 796.624 7.78264 797.035 7.25064 797.343C6.71864 797.651 6.12131 797.805 5.45864 797.805C4.76798 797.805 4.15198 797.642 3.61064 797.315C3.07864 796.979 2.65864 796.498 2.35064 795.873C2.04264 795.248 1.88864 794.506 1.88864 793.647C1.88864 792.294 2.04264 791.174 2.35064 790.287C2.65864 789.4 3.08798 788.742 3.63864 788.313C4.18931 787.874 4.82864 787.655 5.55664 787.655C6.20998 787.655 6.79798 787.823 7.32064 788.159C7.85264 788.486 8.25398 788.934 8.52464 789.503L7.90864 790.063C7.71264 789.587 7.39998 789.209 6.97064 788.929C6.55064 788.64 6.07931 788.495 5.55664 788.495C4.73531 788.495 4.07264 788.878 3.56864 789.643C3.07398 790.399 2.82198 791.463 2.81264 792.835C3.01798 792.294 3.37264 791.86 3.87664 791.533C4.38064 791.197 4.94531 791.029 5.57064 791.029C6.20531 791.029 6.77931 791.178 7.29264 791.477C7.81531 791.776 8.22598 792.182 8.52464 792.695C8.83264 793.199 8.98664 793.764 8.98664 794.389ZM5.48664 796.965C5.95331 796.965 6.38264 796.853 6.77464 796.629C7.16664 796.396 7.47931 796.083 7.71264 795.691C7.95531 795.299 8.07664 794.865 8.07664 794.389C8.07664 793.922 7.95531 793.493 7.71264 793.101C7.47931 792.709 7.16664 792.396 6.77464 792.163C6.38264 791.93 5.94864 791.813 5.47264 791.813C4.99664 791.813 4.56264 791.93 4.17064 792.163C3.77864 792.396 3.46598 792.709 3.23264 793.101C2.99931 793.493 2.88264 793.922 2.88264 794.389C2.88264 794.856 2.99931 795.285 3.23264 795.677C3.47531 796.069 3.79264 796.382 4.18464 796.615C4.57664 796.848 5.01064 796.965 5.48664 796.965Z" fill="#183251"/>
<path d="M8.92378 879.636C8.92378 880.215 8.76044 880.719 8.43378 881.148C8.11644 881.577 7.69178 881.913 7.15978 882.156C6.63711 882.389 6.06311 882.506 5.43778 882.506C4.77511 882.506 4.18711 882.375 3.67378 882.114C3.16044 881.843 2.75444 881.489 2.45578 881.05C2.16644 880.611 2.02178 880.121 2.02178 879.58C2.02178 879.16 2.11978 878.782 2.31578 878.446C2.51178 878.11 2.76378 877.825 3.07178 877.592C3.37978 877.359 3.69244 877.186 4.00978 877.074C3.57111 876.897 3.18844 876.631 2.86178 876.276C2.53511 875.912 2.37178 875.483 2.37178 874.988C2.37178 874.577 2.46044 874.218 2.63778 873.91C2.82444 873.593 3.06711 873.327 3.36578 873.112C3.67378 872.897 4.00978 872.734 4.37378 872.622C4.73778 872.51 5.10644 872.454 5.47978 872.454C5.97444 872.454 6.45978 872.552 6.93578 872.748C7.41178 872.935 7.80378 873.219 8.11178 873.602C8.42911 873.975 8.58778 874.433 8.58778 874.974C8.58778 875.469 8.41978 875.898 8.08378 876.262C7.75711 876.626 7.36978 876.897 6.92178 877.074C7.46311 877.261 7.92978 877.578 8.32178 878.026C8.72311 878.474 8.92378 879.011 8.92378 879.636ZM3.32378 875.03C3.32378 875.394 3.43578 875.702 3.65978 875.954C3.88378 876.206 4.15911 876.397 4.48578 876.528C4.81244 876.659 5.13911 876.724 5.46578 876.724C5.80178 876.724 6.13311 876.659 6.45978 876.528C6.78644 876.388 7.06178 876.192 7.28578 875.94C7.50978 875.679 7.62178 875.366 7.62178 875.002C7.62178 874.647 7.51911 874.344 7.31378 874.092C7.10844 873.84 6.83778 873.649 6.50178 873.518C6.17511 873.387 5.82511 873.322 5.45178 873.322C5.08778 873.322 4.74244 873.392 4.41578 873.532C4.09844 873.663 3.83711 873.859 3.63178 874.12C3.42644 874.372 3.32378 874.675 3.32378 875.03ZM7.95778 879.566C7.95778 879.127 7.83178 878.754 7.57978 878.446C7.32778 878.129 7.00578 877.891 6.61378 877.732C6.23111 877.564 5.84378 877.48 5.45178 877.48C5.05044 877.48 4.65844 877.569 4.27578 877.746C3.90244 877.914 3.59444 878.157 3.35178 878.474C3.11844 878.791 3.00178 879.16 3.00178 879.58C3.00178 880.009 3.12778 880.383 3.37978 880.7C3.63178 881.008 3.94911 881.246 4.33178 881.414C4.71444 881.573 5.10178 881.652 5.49378 881.652C5.89511 881.652 6.28244 881.568 6.65578 881.4C7.03844 881.223 7.35111 880.98 7.59378 880.672C7.83644 880.355 7.95778 879.986 7.95778 879.566Z" fill="#183251"/>
<path d="M1.49497 953.029C1.49497 952.395 1.64897 951.821 1.95697 951.307C2.2743 950.794 2.69897 950.383 3.23097 950.075C3.76297 949.767 4.3603 949.613 5.02297 949.613C5.72297 949.613 6.33897 949.781 6.87097 950.117C7.4123 950.444 7.8323 950.92 8.13097 951.545C8.43897 952.171 8.59297 952.913 8.59297 953.771C8.59297 955.125 8.43897 956.245 8.13097 957.131C7.82297 958.018 7.39363 958.676 6.84297 959.105C6.2923 959.544 5.65297 959.763 4.92497 959.763C4.27163 959.763 3.68363 959.595 3.16097 959.259C2.6383 958.933 2.23697 958.485 1.95697 957.915L2.57297 957.355C2.76897 957.831 3.07697 958.209 3.49697 958.489C3.9263 958.779 4.4023 958.923 4.92497 958.923C5.75563 958.923 6.4183 958.541 6.91297 957.775C7.41697 957.019 7.67363 955.955 7.68297 954.583C7.47763 955.125 7.12297 955.563 6.61897 955.899C6.11497 956.226 5.54563 956.389 4.91097 956.389C4.2763 956.389 3.7023 956.24 3.18897 955.941C2.67563 955.643 2.26497 955.241 1.95697 954.737C1.64897 954.224 1.49497 953.655 1.49497 953.029ZM5.00897 950.453C4.53297 950.453 4.09897 950.57 3.70697 950.803C3.31497 951.027 2.99763 951.335 2.75497 951.727C2.52163 952.119 2.40497 952.553 2.40497 953.029C2.40497 953.496 2.52163 953.925 2.75497 954.317C2.99763 954.709 3.31497 955.022 3.70697 955.255C4.1083 955.489 4.5423 955.605 5.00897 955.605C5.48497 955.605 5.91897 955.489 6.31097 955.255C6.70297 955.022 7.01563 954.709 7.24897 954.317C7.4823 953.925 7.59897 953.496 7.59897 953.029C7.59897 952.563 7.4823 952.133 7.24897 951.741C7.01563 951.349 6.6983 951.037 6.29697 950.803C5.90497 950.57 5.47563 950.453 5.00897 950.453Z" fill="#183251"/>
<path d="M7.16002 830.169H1.79802V829.287H8.67202L3.64602 839.227H2.55402L7.16002 830.169Z" fill="#183251"/>
<path d="M258 536.585L258 1031.96C258 1092.71 208.751 1141.96 148 1141.96H138.69C77.9385 1141.96 28.6899 1092.71 28.6899 1031.96L28.6899 536.585H258Z" fill="#C8C4C4"/>
<path d="M246.993 1015.38H199.433H41.5315" stroke="#183251"/>
<path d="M41.5315 537.502C41.5315 395.191 52.3549 258.709 71.6207 158.079C90.8864 57.4501 117.016 0.917232 144.262 0.917236C171.508 0.91724 197.638 57.4502 216.904 158.079C236.17 258.709 246.993 395.191 246.993 537.502H144.262H41.5315Z" fill="#C8C4C4"/>
<path d="M41.5315 536.585C41.5315 394.274 52.3549 257.791 71.6207 157.162C90.8864 56.5329 117.016 -3.95883e-06 144.262 0C171.508 3.95883e-06 197.638 56.5329 216.904 157.162C236.17 257.791 246.993 394.274 246.993 536.585H222.897C222.897 427.653 214.613 323.183 199.866 246.157C185.119 169.131 165.118 125.858 144.262 125.858C123.407 125.858 103.406 169.131 88.659 246.157C73.9121 323.183 65.6273 427.653 65.6273 536.585H41.5315Z" fill="#597F97" fill-opacity="0.78"/>
<rect x="241.406" y="778.819" width="30.1034" height="30.1034" transform="rotate(90 241.406 778.819)" stroke="#6C747C" stroke-width="2"/>
<rect x="245.993" y="774.233" width="39.2758" height="39.2758" transform="rotate(90 245.993 774.233)" stroke="#597F97" stroke-width="2"/>
<rect x="194.627" y="939.336" width="30.1034" height="30.1034" transform="rotate(90 194.627 939.336)" stroke="#6C747C" stroke-width="2"/>
<rect x="199.214" y="934.75" width="39.2758" height="39.2758" transform="rotate(90 199.214 934.75)" stroke="#597F97" stroke-width="2"/>
<rect x="193.71" y="778.819" width="30.1034" height="30.1034" transform="rotate(90 193.71 778.819)" stroke="#6C747C" stroke-width="2"/>
<rect x="198.296" y="774.233" width="39.2758" height="39.2758" transform="rotate(90 198.296 774.233)" stroke="#597F97" stroke-width="2"/>
<rect x="124.917" y="778.819" width="30.1034" height="30.1034" transform="rotate(90 124.917 778.819)" stroke="#6C747C" stroke-width="2"/>
<rect x="129.503" y="774.233" width="39.2758" height="39.2758" transform="rotate(90 129.503 774.233)" stroke="#597F97" stroke-width="2"/>
<rect x="77.2202" y="778.819" width="30.1034" height="30.1034" transform="rotate(90 77.2202 778.819)" stroke="#6C747C" stroke-width="2"/>
<rect x="81.8064" y="774.233" width="39.2758" height="39.2758" transform="rotate(90 81.8064 774.233)" stroke="#597F97" stroke-width="2"/>
<rect x="77.2202" y="938.419" width="30.1034" height="30.1034" transform="rotate(90 77.2202 938.419)" stroke="#6C747C" stroke-width="2"/>
<rect x="81.8064" y="933.833" width="39.2758" height="39.2758" transform="rotate(90 81.8064 933.833)" stroke="#597F97" stroke-width="2"/>
<rect x="123.083" y="686.178" width="30.1034" height="30.1034" transform="rotate(90 123.083 686.178)" stroke="#6C747C" stroke-width="2"/>
<rect x="127.669" y="681.592" width="39.2758" height="39.2758" transform="rotate(90 127.669 681.592)" stroke="#597F97" stroke-width="2"/>
<rect x="194.627" y="635.73" width="30.1034" height="30.1034" transform="rotate(90 194.627 635.73)" stroke="#6C747C" stroke-width="2"/>
<rect x="199.214" y="631.144" width="39.2758" height="39.2758" transform="rotate(90 199.214 631.144)" stroke="#597F97" stroke-width="2"/>
<rect x="240.49" y="635.73" width="30.1034" height="30.1034" transform="rotate(90 240.49 635.73)" stroke="#6C747C" stroke-width="2"/>
<rect x="245.076" y="631.144" width="39.2758" height="39.2758" transform="rotate(90 245.076 631.144)" stroke="#597F97" stroke-width="2"/>
<rect x="240.49" y="687.095" width="30.1034" height="30.1034" transform="rotate(90 240.49 687.095)" stroke="#6C747C" stroke-width="2"/>
<rect x="245.076" y="682.509" width="39.2758" height="39.2758" transform="rotate(90 245.076 682.509)" stroke="#597F97" stroke-width="2"/>
<rect x="124" y="635.73" width="30.1034" height="30.1034" transform="rotate(90 124 635.73)" stroke="#6C747C" stroke-width="2"/>
<rect x="128.586" y="631.144" width="39.2758" height="39.2758" transform="rotate(90 128.586 631.144)" stroke="#597F97" stroke-width="2"/>
<rect x="77.2202" y="635.73" width="30.1034" height="30.1034" transform="rotate(90 77.2202 635.73)" stroke="#6C747C" stroke-width="2"/>
<rect x="81.8064" y="631.144" width="39.2758" height="39.2758" transform="rotate(90 81.8064 631.144)" stroke="#597F97" stroke-width="2"/>
<rect x="124" y="584.364" width="30.1034" height="30.1034" transform="rotate(90 124 584.364)" stroke="#6C747C" stroke-width="2"/>
<rect x="128.586" y="579.778" width="39.2758" height="39.2758" transform="rotate(90 128.586 579.778)" stroke="#597F97" stroke-width="2"/>
<rect x="203.8" y="401.834" width="30.1034" height="30.1034" transform="rotate(90 203.8 401.834)" stroke="#6C747C" stroke-width="2"/>
<rect x="208.386" y="397.248" width="39.2758" height="39.2758" transform="rotate(90 208.386 397.248)" stroke="#597F97" stroke-width="2"/>
<rect x="203.8" y="481.634" width="30.1034" height="30.1034" transform="rotate(90 203.8 481.634)" stroke="#6C747C" stroke-width="2"/>
<rect x="208.386" y="477.047" width="39.2758" height="39.2758" transform="rotate(90 208.386 477.047)" stroke="#597F97" stroke-width="2"/>
<rect x="77.2202" y="584.364" width="30.1034" height="30.1034" transform="rotate(90 77.2202 584.364)" stroke="#6C747C" stroke-width="2"/>
<rect x="81.8064" y="579.778" width="39.2758" height="39.2758" transform="rotate(90 81.8064 579.778)" stroke="#597F97" stroke-width="2"/>
<rect x="77.2202" y="859.536" width="30.1034" height="30.1034" transform="rotate(90 77.2202 859.536)" fill="#6C747C" stroke="#6C747C" stroke-width="2"/>
<rect x="81.8064" y="854.95" width="39.2758" height="39.2758" transform="rotate(90 81.8064 854.95)" stroke="#597F97" stroke-width="2"/>
<rect x="124.917" y="939.336" width="30.1034" height="30.1034" transform="rotate(90 124.917 939.336)" fill="#6C747C" stroke="#6C747C" stroke-width="2"/>
<rect x="129.503" y="934.75" width="39.2758" height="39.2758" transform="rotate(90 129.503 934.75)" stroke="#597F97" stroke-width="2"/>
<rect x="240.49" y="858.619" width="30.1034" height="30.1034" transform="rotate(90 240.49 858.619)" fill="#6C747C" stroke="#6C747C" stroke-width="2"/>
<rect x="245.076" y="854.033" width="39.2758" height="39.2758" transform="rotate(90 245.076 854.033)" stroke="#597F97" stroke-width="2"/>
<rect x="241.406" y="938.419" width="30.1034" height="30.1034" transform="rotate(90 241.406 938.419)" fill="#6C747C" stroke="#6C747C" stroke-width="2"/>
<rect x="245.993" y="933.833" width="39.2758" height="39.2758" transform="rotate(90 245.993 933.833)" stroke="#597F97" stroke-width="2"/>
<rect x="77.2202" y="686.178" width="30.1034" height="30.1034" transform="rotate(90 77.2202 686.178)" fill="#6C747C" stroke="#6C747C" stroke-width="2"/>
<rect x="81.8064" y="681.592" width="39.2758" height="39.2758" transform="rotate(90 81.8064 681.592)" stroke="#597F97" stroke-width="2"/>
<rect x="240.49" y="584.364" width="30.1034" height="30.1034" transform="rotate(90 240.49 584.364)" fill="#6C747C" stroke="#6C747C" stroke-width="2"/>
<rect x="245.076" y="579.778" width="39.2758" height="39.2758" transform="rotate(90 245.076 579.778)" stroke="#597F97" stroke-width="2"/>
<rect x="194.627" y="585.281" width="30.1034" height="30.1034" transform="rotate(90 194.627 585.281)" fill="#6C747C" stroke="#6C747C" stroke-width="2"/>
<rect x="199.214" y="580.695" width="39.2758" height="39.2758" transform="rotate(90 199.214 580.695)" stroke="#597F97" stroke-width="2"/>
<rect x="194.627" y="686.178" width="30.1034" height="30.1034" transform="rotate(90 194.627 686.178)" fill="#6C747C" stroke="#6C747C" stroke-width="2"/>
<rect x="199.214" y="681.592" width="39.2758" height="39.2758" transform="rotate(90 199.214 681.592)" stroke="#597F97" stroke-width="2"/>
<rect x="116.663" y="482.551" width="30.1034" height="30.1034" transform="rotate(90 116.663 482.551)" fill="#6C747C" stroke="#6C747C" stroke-width="2"/>
<rect x="121.248" y="477.965" width="39.2758" height="39.2758" transform="rotate(90 121.248 477.965)" stroke="#597F97" stroke-width="2"/>
<rect x="116.663" y="401.834" width="30.1034" height="30.1034" transform="rotate(90 116.663 401.834)" fill="#6C747C" stroke="#6C747C" stroke-width="2"/>
<rect x="121.248" y="397.248" width="39.2758" height="39.2758" transform="rotate(90 121.248 397.248)" stroke="#597F97" stroke-width="2"/>
<path d="M28.6899 536.585C28.6899 394.274 40.7695 257.791 62.2715 157.162C83.7735 56.5329 112.936 -3.95883e-06 143.345 0C173.753 3.95883e-06 202.916 56.5329 224.418 157.162C245.92 257.791 258 394.274 258 536.585H244.196C244.196 411.407 233.571 291.357 214.657 202.843C195.744 114.329 170.092 64.602 143.345 64.602C116.597 64.602 90.9456 114.329 72.0323 202.843C53.119 291.357 42.4937 411.407 42.4937 536.585H28.6899Z" fill="#597F97"/>
<path d="M195.627 368.73L171.635 368.73L91.9794 368.73" stroke="#6C747C" stroke-opacity="0.7"/>
<path d="M217.776 739.999H218.602L222.732 749.939H221.696L220.408 746.831H215.942L214.668 749.939H213.618L217.776 739.999ZM220.184 746.061L218.182 741.147L216.152 746.061H220.184Z" fill="#183251"/>
<path d="M185.673 529.034H186.499L190.629 538.974H189.593L188.305 535.866H183.839L182.565 538.974H181.515L185.673 529.034ZM188.081 535.096L186.079 530.182L184.049 535.096H188.081Z" fill="#183251"/>
<path d="M180.896 747.377C180.896 747.872 180.77 748.315 180.518 748.707C180.266 749.09 179.926 749.393 179.496 749.617C179.076 749.832 178.614 749.939 178.11 749.939H173.42V739.999H178.208C178.675 739.999 179.076 740.125 179.412 740.377C179.748 740.62 180.01 740.937 180.196 741.329C180.383 741.712 180.476 742.113 180.476 742.533C180.476 743.028 180.35 743.485 180.098 743.905C179.846 744.325 179.496 744.638 179.048 744.843C179.608 745.011 180.056 745.324 180.392 745.781C180.728 746.238 180.896 746.77 180.896 747.377ZM174.4 740.853V744.521H177.816C178.143 744.521 178.432 744.437 178.684 744.269C178.946 744.092 179.146 743.868 179.286 743.597C179.436 743.317 179.51 743.014 179.51 742.687C179.51 742.351 179.44 742.043 179.3 741.763C179.16 741.483 178.969 741.264 178.726 741.105C178.484 740.937 178.208 740.853 177.9 740.853H174.4ZM179.916 747.209C179.916 746.882 179.842 746.574 179.692 746.285C179.543 745.996 179.338 745.762 179.076 745.585C178.824 745.408 178.535 745.319 178.208 745.319H174.4V749.085H178.11C178.446 749.085 178.75 748.996 179.02 748.819C179.291 748.642 179.506 748.413 179.664 748.133C179.832 747.844 179.916 747.536 179.916 747.209Z" fill="#183251"/>
<path d="M100.301 744.899C100.301 744.302 100.403 743.709 100.609 743.121C100.823 742.533 101.131 742.001 101.533 741.525C101.934 741.04 102.429 740.657 103.017 740.377C103.605 740.088 104.272 739.943 105.019 739.943C105.896 739.943 106.652 740.148 107.287 740.559C107.921 740.96 108.388 741.478 108.687 742.113L107.917 742.589C107.702 742.15 107.431 741.805 107.105 741.553C106.778 741.292 106.428 741.105 106.055 740.993C105.691 740.881 105.327 740.825 104.963 740.825C104.365 740.825 103.838 740.946 103.381 741.189C102.923 741.422 102.536 741.74 102.219 742.141C101.911 742.542 101.677 742.986 101.519 743.471C101.36 743.956 101.281 744.451 101.281 744.955C101.281 745.506 101.374 746.033 101.561 746.537C101.747 747.032 102.009 747.475 102.345 747.867C102.681 748.259 103.073 748.572 103.521 748.805C103.978 749.029 104.473 749.141 105.005 749.141C105.378 749.141 105.761 749.076 106.153 748.945C106.545 748.814 106.909 748.614 107.245 748.343C107.581 748.072 107.856 747.722 108.071 747.293L108.883 747.713C108.668 748.208 108.346 748.628 107.917 748.973C107.497 749.318 107.021 749.58 106.489 749.757C105.966 749.934 105.453 750.023 104.949 750.023C104.267 750.023 103.642 749.878 103.073 749.589C102.503 749.29 102.009 748.898 101.589 748.413C101.178 747.918 100.861 747.368 100.637 746.761C100.413 746.145 100.301 745.524 100.301 744.899Z" fill="#183251"/>
<path d="M56.9306 749.939V739.999H60.3046C61.3592 739.999 62.2366 740.223 62.9366 740.671C63.6459 741.11 64.1779 741.707 64.5326 742.463C64.8872 743.21 65.0646 744.04 65.0646 744.955C65.0646 745.963 64.8686 746.84 64.4766 747.587C64.0846 748.334 63.5339 748.912 62.8246 749.323C62.1152 749.734 61.2752 749.939 60.3046 749.939H56.9306ZM64.0846 744.955C64.0846 744.162 63.9352 743.457 63.6366 742.841C63.3472 742.225 62.9179 741.744 62.3486 741.399C61.7886 741.044 61.1072 740.867 60.3046 740.867H57.9106V749.071H60.3046C61.1259 749.071 61.8166 748.889 62.3766 748.525C62.9366 748.161 63.3612 747.671 63.6506 747.055C63.9399 746.439 64.0846 745.739 64.0846 744.955Z" fill="#183251"/>
<path d="M94.538 538.974V529.034H97.912C98.9667 529.034 99.844 529.258 100.544 529.706C101.253 530.144 101.785 530.742 102.14 531.498C102.495 532.244 102.672 533.075 102.672 533.99C102.672 534.998 102.476 535.875 102.084 536.622C101.692 537.368 101.141 537.947 100.432 538.358C99.7227 538.768 98.8827 538.974 97.912 538.974H94.538ZM101.692 533.99C101.692 533.196 101.543 532.492 101.244 531.876C100.955 531.26 100.525 530.779 99.956 530.434C99.396 530.079 98.7147 529.902 97.912 529.902H95.518V538.106H97.912C98.7333 538.106 99.424 537.924 99.984 537.56C100.544 537.196 100.969 536.706 101.258 536.09C101.547 535.474 101.692 534.774 101.692 533.99Z" fill="#183251"/>
<path d="M144.054 434.035H143.186V429.289H144.054V431.277H150.046C149.906 431.174 149.748 430.987 149.57 430.717C149.393 430.446 149.239 430.152 149.108 429.835C148.987 429.517 148.926 429.237 148.926 428.995H149.85C149.85 429.209 149.911 429.443 150.032 429.695C150.154 429.956 150.294 430.199 150.452 430.423C150.62 430.656 150.774 430.852 150.914 431.011C151.054 431.169 151.143 431.258 151.18 431.277V432.257H144.054V434.035ZM148.226 438.495C148.824 438.495 149.416 438.598 150.004 438.803C150.592 439.018 151.124 439.326 151.6 439.727C152.086 440.129 152.468 440.623 152.748 441.211C153.038 441.799 153.182 442.467 153.182 443.213C153.182 444.091 152.977 444.847 152.566 445.481C152.165 446.116 151.647 446.583 151.012 446.881L150.536 446.111C150.975 445.897 151.32 445.626 151.572 445.299C151.834 444.973 152.02 444.623 152.132 444.249C152.244 443.885 152.3 443.521 152.3 443.157C152.3 442.56 152.179 442.033 151.936 441.575C151.703 441.118 151.386 440.731 150.984 440.413C150.583 440.105 150.14 439.872 149.654 439.713C149.169 439.555 148.674 439.475 148.17 439.475C147.62 439.475 147.092 439.569 146.588 439.755C146.094 439.942 145.65 440.203 145.258 440.539C144.866 440.875 144.554 441.267 144.32 441.715C144.096 442.173 143.984 442.667 143.984 443.199C143.984 443.573 144.05 443.955 144.18 444.347C144.311 444.739 144.512 445.103 144.782 445.439C145.053 445.775 145.403 446.051 145.832 446.265L145.412 447.077C144.918 446.863 144.498 446.541 144.152 446.111C143.807 445.691 143.546 445.215 143.368 444.683C143.191 444.161 143.102 443.647 143.102 443.143C143.102 442.462 143.247 441.837 143.536 441.267C143.835 440.698 144.227 440.203 144.712 439.783C145.207 439.373 145.758 439.055 146.364 438.831C146.98 438.607 147.601 438.495 148.226 438.495ZM153.406 448.597V449.549H144.838C144.474 449.549 144.236 449.61 144.124 449.731C144.012 449.862 143.956 450.025 143.956 450.221C143.956 450.389 143.975 450.557 144.012 450.725C144.05 450.902 144.087 451.047 144.124 451.159L143.354 451.327C143.28 451.15 143.219 450.93 143.172 450.669C143.126 450.417 143.102 450.198 143.102 450.011C143.102 449.582 143.228 449.236 143.48 448.975C143.732 448.723 144.078 448.597 144.516 448.597H153.406ZM145.286 451.782C145.734 451.782 146.122 451.912 146.448 452.174C146.784 452.435 147.046 452.794 147.232 453.252C147.419 453.718 147.512 454.255 147.512 454.862C147.512 455.216 147.48 455.585 147.414 455.968C147.358 456.35 147.279 456.691 147.176 456.99H147.792C148.408 456.99 148.898 456.808 149.262 456.444C149.626 456.08 149.808 455.576 149.808 454.932C149.808 454.549 149.734 454.166 149.584 453.784C149.444 453.401 149.234 453.004 148.954 452.594L149.626 452.23C149.953 452.706 150.196 453.172 150.354 453.63C150.522 454.087 150.606 454.554 150.606 455.03C150.606 455.926 150.35 456.635 149.836 457.158C149.323 457.68 148.614 457.942 147.708 457.942H144.334C144.082 457.942 143.952 458.058 143.942 458.292H143.186C143.158 458.086 143.149 457.942 143.158 457.858C143.168 457.624 143.242 457.447 143.382 457.326C143.522 457.204 143.672 457.139 143.83 457.13L144.362 457.116C143.942 456.789 143.616 456.364 143.382 455.842C143.158 455.319 143.046 454.787 143.046 454.246C143.046 453.77 143.144 453.345 143.34 452.972C143.546 452.598 143.816 452.304 144.152 452.09C144.498 451.884 144.876 451.782 145.286 451.782ZM144.726 456.668C144.978 456.882 145.212 456.99 145.426 456.99H146.49C146.742 456.346 146.868 455.674 146.868 454.974C146.868 454.292 146.733 453.742 146.462 453.322C146.192 452.902 145.823 452.692 145.356 452.692C144.955 452.692 144.591 452.846 144.264 453.154C143.938 453.471 143.774 453.91 143.774 454.47C143.774 454.927 143.863 455.352 144.04 455.744C144.218 456.145 144.446 456.453 144.726 456.668ZM143.046 462.392C143.046 461.795 143.144 461.24 143.34 460.726C143.546 460.222 143.844 459.779 144.236 459.396L144.908 459.788C144.526 460.199 144.246 460.61 144.068 461.02C143.9 461.44 143.816 461.884 143.816 462.35C143.816 462.91 143.928 463.368 144.152 463.722C144.386 464.086 144.717 464.268 145.146 464.268C145.436 464.268 145.655 464.18 145.804 464.002C145.963 463.834 146.089 463.587 146.182 463.26C146.276 462.943 146.383 462.56 146.504 462.112C146.644 461.608 146.789 461.184 146.938 460.838C147.097 460.502 147.293 460.246 147.526 460.068C147.769 459.9 148.082 459.816 148.464 459.816C148.931 459.816 149.323 459.933 149.64 460.166C149.958 460.409 150.196 460.736 150.354 461.146C150.522 461.566 150.606 462.033 150.606 462.546C150.606 463.106 150.518 463.601 150.34 464.03C150.163 464.46 149.916 464.81 149.598 465.08L148.954 464.618C149.253 464.366 149.472 464.054 149.612 463.68C149.762 463.316 149.836 462.92 149.836 462.49C149.836 462.192 149.794 461.907 149.71 461.636C149.636 461.366 149.505 461.142 149.318 460.964C149.141 460.796 148.894 460.712 148.576 460.712C148.184 460.712 147.914 460.857 147.764 461.146C147.615 461.436 147.456 461.874 147.288 462.462C147.139 463.013 146.99 463.494 146.84 463.904C146.691 464.315 146.49 464.632 146.238 464.856C145.996 465.08 145.655 465.192 145.216 465.192C144.535 465.192 144.003 464.936 143.62 464.422C143.238 463.909 143.046 463.232 143.046 462.392ZM143.046 469.16C143.046 468.563 143.144 468.007 143.34 467.494C143.546 466.99 143.844 466.547 144.236 466.164L144.908 466.556C144.526 466.967 144.246 467.377 144.068 467.788C143.9 468.208 143.816 468.651 143.816 469.118C143.816 469.678 143.928 470.135 144.152 470.49C144.386 470.854 144.717 471.036 145.146 471.036C145.436 471.036 145.655 470.947 145.804 470.77C145.963 470.602 146.089 470.355 146.182 470.028C146.276 469.711 146.383 469.328 146.504 468.88C146.644 468.376 146.789 467.951 146.938 467.606C147.097 467.27 147.293 467.013 147.526 466.836C147.769 466.668 148.082 466.584 148.464 466.584C148.931 466.584 149.323 466.701 149.64 466.934C149.958 467.177 150.196 467.503 150.354 467.914C150.522 468.334 150.606 468.801 150.606 469.314C150.606 469.874 150.518 470.369 150.34 470.798C150.163 471.227 149.916 471.577 149.598 471.848L148.954 471.386C149.253 471.134 149.472 470.821 149.612 470.448C149.762 470.084 149.836 469.687 149.836 469.258C149.836 468.959 149.794 468.675 149.71 468.404C149.636 468.133 149.505 467.909 149.318 467.732C149.141 467.564 148.894 467.48 148.576 467.48C148.184 467.48 147.914 467.625 147.764 467.914C147.615 468.203 147.456 468.642 147.288 469.23C147.139 469.781 146.99 470.261 146.84 470.672C146.691 471.083 146.49 471.4 146.238 471.624C145.996 471.848 145.655 471.96 145.216 471.96C144.535 471.96 144.003 471.703 143.62 471.19C143.238 470.677 143.046 470 143.046 469.16Z" fill="#183251"/>
<path d="M140.98 634.802C140.877 635.418 140.597 635.908 140.14 636.272C139.682 636.645 139.118 636.832 138.446 636.832C137.886 636.832 137.396 636.697 136.976 636.426C136.546 636.155 136.215 635.777 135.982 635.292C135.739 634.807 135.618 634.242 135.618 633.598C135.618 632.898 135.762 632.277 136.052 631.736C136.332 631.204 136.724 630.803 137.228 630.532L137.83 631.19C137.419 631.386 137.092 631.685 136.85 632.086C136.607 632.497 136.486 633.001 136.486 633.598C136.486 634.289 136.658 634.835 137.004 635.236C137.34 635.647 137.825 635.852 138.46 635.852C139.094 635.852 139.598 635.637 139.972 635.208C140.354 634.788 140.546 634.186 140.546 633.402V633.052H141.358V633.43C141.358 634.149 141.521 634.699 141.848 635.082C142.184 635.465 142.618 635.656 143.15 635.656C143.71 635.656 144.134 635.46 144.424 635.068C144.722 634.685 144.872 634.205 144.872 633.626C144.872 633.094 144.75 632.623 144.508 632.212C144.274 631.811 143.948 631.507 143.528 631.302L144.116 630.686C144.601 630.919 144.993 631.311 145.292 631.862C145.59 632.413 145.74 633.029 145.74 633.71C145.74 634.289 145.632 634.797 145.418 635.236C145.212 635.675 144.918 636.02 144.536 636.272C144.162 636.524 143.728 636.65 143.234 636.65C142.674 636.65 142.179 636.482 141.75 636.146C141.32 635.819 141.064 635.371 140.98 634.802ZM142.716 641.635C143.313 641.635 143.906 641.738 144.494 641.943C145.082 642.158 145.614 642.466 146.09 642.867C146.575 643.268 146.958 643.763 147.238 644.351C147.527 644.939 147.672 645.606 147.672 646.353C147.672 647.23 147.466 647.986 147.056 648.621C146.654 649.256 146.136 649.722 145.502 650.021L145.026 649.251C145.464 649.036 145.81 648.766 146.062 648.439C146.323 648.112 146.51 647.762 146.622 647.389C146.734 647.025 146.79 646.661 146.79 646.297C146.79 645.7 146.668 645.172 146.426 644.715C146.192 644.258 145.875 643.87 145.474 643.553C145.072 643.245 144.629 643.012 144.144 642.853C143.658 642.694 143.164 642.615 142.66 642.615C142.109 642.615 141.582 642.708 141.078 642.895C140.583 643.082 140.14 643.343 139.748 643.679C139.356 644.015 139.043 644.407 138.81 644.855C138.586 645.312 138.474 645.807 138.474 646.339C138.474 646.712 138.539 647.095 138.67 647.487C138.8 647.879 139.001 648.243 139.272 648.579C139.542 648.915 139.892 649.19 140.322 649.405L139.902 650.217C139.407 650.002 138.987 649.68 138.642 649.251C138.296 648.831 138.035 648.355 137.858 647.823C137.68 647.3 137.592 646.787 137.592 646.283C137.592 645.602 137.736 644.976 138.026 644.407C138.324 643.838 138.716 643.343 139.202 642.923C139.696 642.512 140.247 642.195 140.854 641.971C141.47 641.747 142.09 641.635 142.716 641.635ZM147.896 651.737V652.689H139.328C138.964 652.689 138.726 652.749 138.614 652.871C138.502 653.001 138.446 653.165 138.446 653.361C138.446 653.529 138.464 653.697 138.502 653.865C138.539 654.042 138.576 654.187 138.614 654.299L137.844 654.467C137.769 654.289 137.708 654.07 137.662 653.809C137.615 653.557 137.592 653.337 137.592 653.151C137.592 652.721 137.718 652.376 137.97 652.115C138.222 651.863 138.567 651.737 139.006 651.737H147.896ZM139.776 654.921C140.224 654.921 140.611 655.052 140.938 655.313C141.274 655.574 141.535 655.934 141.722 656.391C141.908 656.858 142.002 657.394 142.002 658.001C142.002 658.356 141.969 658.724 141.904 659.107C141.848 659.49 141.768 659.83 141.666 660.129H142.282C142.898 660.129 143.388 659.947 143.752 659.583C144.116 659.219 144.298 658.715 144.298 658.071C144.298 657.688 144.223 657.306 144.074 656.923C143.934 656.54 143.724 656.144 143.444 655.733L144.116 655.369C144.442 655.845 144.685 656.312 144.844 656.769C145.012 657.226 145.096 657.693 145.096 658.169C145.096 659.065 144.839 659.774 144.326 660.297C143.812 660.82 143.103 661.081 142.198 661.081H138.824C138.572 661.081 138.441 661.198 138.432 661.431H137.676C137.648 661.226 137.638 661.081 137.648 660.997C137.657 660.764 137.732 660.586 137.872 660.465C138.012 660.344 138.161 660.278 138.32 660.269L138.852 660.255C138.432 659.928 138.105 659.504 137.872 658.981C137.648 658.458 137.536 657.926 137.536 657.385C137.536 656.909 137.634 656.484 137.83 656.111C138.035 655.738 138.306 655.444 138.642 655.229C138.987 655.024 139.365 654.921 139.776 654.921ZM139.216 659.807C139.468 660.022 139.701 660.129 139.916 660.129H140.98C141.232 659.485 141.358 658.813 141.358 658.113C141.358 657.432 141.222 656.881 140.952 656.461C140.681 656.041 140.312 655.831 139.846 655.831C139.444 655.831 139.08 655.985 138.754 656.293C138.427 656.61 138.264 657.049 138.264 657.609C138.264 658.066 138.352 658.491 138.53 658.883C138.707 659.284 138.936 659.592 139.216 659.807ZM137.536 665.532C137.536 664.935 137.634 664.379 137.83 663.866C138.035 663.362 138.334 662.919 138.726 662.536L139.398 662.928C139.015 663.339 138.735 663.749 138.558 664.16C138.39 664.58 138.306 665.023 138.306 665.49C138.306 666.05 138.418 666.507 138.642 666.862C138.875 667.226 139.206 667.408 139.636 667.408C139.925 667.408 140.144 667.319 140.294 667.142C140.452 666.974 140.578 666.727 140.672 666.4C140.765 666.083 140.872 665.7 140.994 665.252C141.134 664.748 141.278 664.323 141.428 663.978C141.586 663.642 141.782 663.385 142.016 663.208C142.258 663.04 142.571 662.956 142.954 662.956C143.42 662.956 143.812 663.073 144.13 663.306C144.447 663.549 144.685 663.875 144.844 664.286C145.012 664.706 145.096 665.173 145.096 665.686C145.096 666.246 145.007 666.741 144.83 667.17C144.652 667.599 144.405 667.949 144.088 668.22L143.444 667.758C143.742 667.506 143.962 667.193 144.102 666.82C144.251 666.456 144.326 666.059 144.326 665.63C144.326 665.331 144.284 665.047 144.2 664.776C144.125 664.505 143.994 664.281 143.808 664.104C143.63 663.936 143.383 663.852 143.066 663.852C142.674 663.852 142.403 663.997 142.254 664.286C142.104 664.575 141.946 665.014 141.778 665.602C141.628 666.153 141.479 666.633 141.33 667.044C141.18 667.455 140.98 667.772 140.728 667.996C140.485 668.22 140.144 668.332 139.706 668.332C139.024 668.332 138.492 668.075 138.11 667.562C137.727 667.049 137.536 666.372 137.536 665.532ZM137.536 672.299C137.536 671.702 137.634 671.147 137.83 670.633C138.035 670.129 138.334 669.686 138.726 669.303L139.398 669.695C139.015 670.106 138.735 670.517 138.558 670.927C138.39 671.347 138.306 671.791 138.306 672.257C138.306 672.817 138.418 673.275 138.642 673.629C138.875 673.993 139.206 674.175 139.636 674.175C139.925 674.175 140.144 674.087 140.294 673.909C140.452 673.741 140.578 673.494 140.672 673.167C140.765 672.85 140.872 672.467 140.994 672.019C141.134 671.515 141.278 671.091 141.428 670.745C141.586 670.409 141.782 670.153 142.016 669.975C142.258 669.807 142.571 669.723 142.954 669.723C143.42 669.723 143.812 669.84 144.13 670.073C144.447 670.316 144.685 670.643 144.844 671.053C145.012 671.473 145.096 671.94 145.096 672.453C145.096 673.013 145.007 673.508 144.83 673.937C144.652 674.367 144.405 674.717 144.088 674.987L143.444 674.525C143.742 674.273 143.962 673.961 144.102 673.587C144.251 673.223 144.326 672.827 144.326 672.397C144.326 672.099 144.284 671.814 144.2 671.543C144.125 671.273 143.994 671.049 143.808 670.871C143.63 670.703 143.383 670.619 143.066 670.619C142.674 670.619 142.403 670.764 142.254 671.053C142.104 671.343 141.946 671.781 141.778 672.369C141.628 672.92 141.479 673.401 141.33 673.811C141.18 674.222 140.98 674.539 140.728 674.763C140.485 674.987 140.144 675.099 139.706 675.099C139.024 675.099 138.492 674.843 138.11 674.329C137.727 673.816 137.536 673.139 137.536 672.299Z" fill="#183251"/>
<path d="M109.792 884C109.792 883.46 109.858 882.914 109.99 882.362C110.134 881.798 110.416 881.258 110.836 880.742C111.268 880.214 111.916 879.728 112.78 879.284C113.128 879.104 113.488 878.93 113.86 878.762C114.232 878.582 114.58 878.39 114.904 878.186C115.228 877.97 115.492 877.73 115.696 877.466C115.9 877.19 116.002 876.866 116.002 876.494C116.002 876.194 115.912 875.906 115.732 875.63C115.552 875.342 115.288 875.108 114.94 874.928C114.592 874.736 114.154 874.64 113.626 874.64C113.122 874.64 112.672 874.73 112.276 874.91C111.892 875.09 111.568 875.3 111.304 875.54C111.052 875.768 110.86 875.954 110.728 876.098L109.954 875.252C110.026 875.18 110.164 875.054 110.368 874.874C110.572 874.682 110.836 874.484 111.16 874.28C111.496 874.076 111.886 873.902 112.33 873.758C112.774 873.614 113.272 873.542 113.824 873.542C114.556 873.542 115.18 873.674 115.696 873.938C116.224 874.202 116.626 874.55 116.902 874.982C117.178 875.402 117.316 875.864 117.316 876.368C117.316 876.86 117.208 877.286 116.992 877.646C116.788 877.994 116.518 878.3 116.182 878.564C115.858 878.816 115.516 879.038 115.156 879.23C114.808 879.41 114.49 879.566 114.202 879.698C113.446 880.058 112.852 880.418 112.42 880.778C111.988 881.126 111.67 881.474 111.466 881.822C111.274 882.17 111.142 882.524 111.07 882.884H117.514V884H109.792ZM123.731 877.52C123.731 876.752 123.863 875.99 124.127 875.234C124.403 874.478 124.799 873.794 125.315 873.182C125.831 872.558 126.467 872.066 127.223 871.706C127.979 871.334 128.837 871.148 129.797 871.148C130.925 871.148 131.897 871.412 132.713 871.94C133.529 872.456 134.129 873.122 134.513 873.938L133.523 874.55C133.247 873.986 132.899 873.542 132.479 873.218C132.059 872.882 131.609 872.642 131.129 872.498C130.661 872.354 130.193 872.282 129.725 872.282C128.957 872.282 128.279 872.438 127.691 872.75C127.103 873.05 126.605 873.458 126.197 873.974C125.801 874.49 125.501 875.06 125.297 875.684C125.093 876.308 124.991 876.944 124.991 877.592C124.991 878.3 125.111 878.978 125.351 879.626C125.591 880.262 125.927 880.832 126.359 881.336C126.791 881.84 127.295 882.242 127.871 882.542C128.459 882.83 129.095 882.974 129.779 882.974C130.259 882.974 130.751 882.89 131.255 882.722C131.759 882.554 132.227 882.296 132.659 881.948C133.091 881.6 133.445 881.15 133.721 880.598L134.765 881.138C134.489 881.774 134.075 882.314 133.523 882.758C132.983 883.202 132.371 883.538 131.687 883.766C131.015 883.994 130.355 884.108 129.707 884.108C128.831 884.108 128.027 883.922 127.295 883.55C126.563 883.166 125.927 882.662 125.387 882.038C124.859 881.402 124.451 880.694 124.163 879.914C123.875 879.122 123.731 878.324 123.731 877.52ZM136.718 870.86H137.942V881.876C137.942 882.344 138.02 882.65 138.176 882.794C138.344 882.938 138.554 883.01 138.806 883.01C139.022 883.01 139.238 882.986 139.454 882.938C139.682 882.89 139.868 882.842 140.012 882.794L140.228 883.784C140 883.88 139.718 883.958 139.382 884.018C139.058 884.078 138.776 884.108 138.536 884.108C137.984 884.108 137.54 883.946 137.204 883.622C136.88 883.298 136.718 882.854 136.718 882.29V870.86ZM140.813 881.3C140.813 880.724 140.981 880.226 141.317 879.806C141.653 879.374 142.115 879.038 142.703 878.798C143.303 878.558 143.993 878.438 144.773 878.438C145.229 878.438 145.703 878.48 146.195 878.564C146.687 878.636 147.125 878.738 147.509 878.87V878.078C147.509 877.286 147.275 876.656 146.807 876.188C146.339 875.72 145.691 875.486 144.863 875.486C144.371 875.486 143.879 875.582 143.387 875.774C142.895 875.954 142.385 876.224 141.857 876.584L141.389 875.72C142.001 875.3 142.601 874.988 143.189 874.784C143.777 874.568 144.377 874.46 144.989 874.46C146.141 874.46 147.053 874.79 147.725 875.45C148.397 876.11 148.733 877.022 148.733 878.186V882.524C148.733 882.848 148.883 883.016 149.183 883.028V884C148.919 884.036 148.733 884.048 148.625 884.036C148.325 884.024 148.097 883.928 147.941 883.748C147.785 883.568 147.701 883.376 147.689 883.172L147.671 882.488C147.251 883.028 146.705 883.448 146.033 883.748C145.361 884.036 144.677 884.18 143.981 884.18C143.369 884.18 142.823 884.054 142.343 883.802C141.863 883.538 141.485 883.19 141.209 882.758C140.945 882.314 140.813 881.828 140.813 881.3ZM147.095 882.02C147.371 881.696 147.509 881.396 147.509 881.12V879.752C146.681 879.428 145.817 879.266 144.917 879.266C144.041 879.266 143.333 879.44 142.793 879.788C142.253 880.136 141.983 880.61 141.983 881.21C141.983 881.726 142.181 882.194 142.577 882.614C142.985 883.034 143.549 883.244 144.269 883.244C144.857 883.244 145.403 883.13 145.907 882.902C146.423 882.674 146.819 882.38 147.095 882.02ZM154.455 884.18C153.687 884.18 152.973 884.054 152.313 883.802C151.665 883.538 151.095 883.154 150.603 882.65L151.107 881.786C151.635 882.278 152.163 882.638 152.691 882.866C153.231 883.082 153.801 883.19 154.401 883.19C155.121 883.19 155.709 883.046 156.165 882.758C156.633 882.458 156.867 882.032 156.867 881.48C156.867 881.108 156.753 880.826 156.525 880.634C156.309 880.43 155.991 880.268 155.571 880.148C155.163 880.028 154.671 879.89 154.095 879.734C153.447 879.554 152.901 879.368 152.457 879.176C152.025 878.972 151.695 878.72 151.467 878.42C151.251 878.108 151.143 877.706 151.143 877.214C151.143 876.614 151.293 876.11 151.593 875.702C151.905 875.294 152.325 874.988 152.853 874.784C153.393 874.568 153.993 874.46 154.653 874.46C155.373 874.46 156.009 874.574 156.561 874.802C157.113 875.03 157.563 875.348 157.911 875.756L157.317 876.584C156.993 876.2 156.591 875.918 156.111 875.738C155.643 875.546 155.133 875.45 154.581 875.45C154.197 875.45 153.831 875.504 153.483 875.612C153.135 875.708 152.847 875.876 152.619 876.116C152.403 876.344 152.295 876.662 152.295 877.07C152.295 877.574 152.481 877.922 152.853 878.114C153.225 878.306 153.789 878.51 154.545 878.726C155.253 878.918 155.871 879.11 156.399 879.302C156.927 879.494 157.335 879.752 157.623 880.076C157.911 880.388 158.055 880.826 158.055 881.39C158.055 882.266 157.725 882.95 157.065 883.442C156.405 883.934 155.535 884.18 154.455 884.18ZM163.157 884.18C162.389 884.18 161.675 884.054 161.015 883.802C160.367 883.538 159.797 883.154 159.305 882.65L159.809 881.786C160.337 882.278 160.865 882.638 161.393 882.866C161.933 883.082 162.503 883.19 163.103 883.19C163.823 883.19 164.411 883.046 164.867 882.758C165.335 882.458 165.569 882.032 165.569 881.48C165.569 881.108 165.455 880.826 165.227 880.634C165.011 880.43 164.693 880.268 164.273 880.148C163.865 880.028 163.373 879.89 162.797 879.734C162.149 879.554 161.603 879.368 161.159 879.176C160.727 878.972 160.397 878.72 160.169 878.42C159.953 878.108 159.845 877.706 159.845 877.214C159.845 876.614 159.995 876.11 160.295 875.702C160.607 875.294 161.027 874.988 161.555 874.784C162.095 874.568 162.695 874.46 163.355 874.46C164.075 874.46 164.711 874.574 165.263 874.802C165.815 875.03 166.265 875.348 166.613 875.756L166.019 876.584C165.695 876.2 165.293 875.918 164.813 875.738C164.345 875.546 163.835 875.45 163.283 875.45C162.899 875.45 162.533 875.504 162.185 875.612C161.837 875.708 161.549 875.876 161.321 876.116C161.105 876.344 160.997 876.662 160.997 877.07C160.997 877.574 161.183 877.922 161.555 878.114C161.927 878.306 162.491 878.51 163.247 878.726C163.955 878.918 164.573 879.11 165.101 879.302C165.629 879.494 166.037 879.752 166.325 880.076C166.613 880.388 166.757 880.826 166.757 881.39C166.757 882.266 166.427 882.95 165.767 883.442C165.107 883.934 164.237 884.18 163.157 884.18Z" fill="#183251"/>
<path d="M124.083 449.447V465.04H78.2208V449.447H124.083Z" fill="#6C747C" fill-opacity="0.7"/>
<path d="M211.22 448.53V464.123H165.358V448.53H211.22Z" fill="#6C747C" fill-opacity="0.7"/>
<path d="M111.602 1076V1063.22H112.862V1074.88H120.242V1076H111.602ZM121.719 1072.13V1066.62H122.943V1071.91C122.943 1074.04 123.669 1075.1 125.121 1075.1C125.841 1075.1 126.513 1074.87 127.137 1074.4C127.773 1073.93 128.229 1073.31 128.505 1072.53V1066.62H129.729V1074.52C129.729 1074.85 129.873 1075.02 130.161 1075.03V1076C130.017 1076.02 129.903 1076.04 129.819 1076.04C129.747 1076.04 129.669 1076.04 129.585 1076.04C129.333 1076.01 129.117 1075.92 128.937 1075.75C128.769 1075.58 128.685 1075.38 128.685 1075.14L128.649 1073.88C128.241 1074.61 127.683 1075.18 126.975 1075.59C126.279 1075.98 125.523 1076.18 124.707 1076.18C122.715 1076.18 121.719 1074.83 121.719 1072.13ZM136.258 1076.13C135.61 1076.13 135.016 1075.99 134.476 1075.73C133.948 1075.47 133.486 1075.11 133.09 1074.67C132.706 1074.21 132.406 1073.7 132.19 1073.12C131.974 1072.54 131.866 1071.95 131.866 1071.34C131.866 1070.46 132.052 1069.66 132.424 1068.93C132.796 1068.18 133.306 1067.59 133.954 1067.14C134.614 1066.69 135.37 1066.46 136.222 1066.46C137.026 1066.46 137.722 1066.66 138.31 1067.07C138.91 1067.48 139.414 1067.98 139.822 1068.58V1066.62H140.92V1076.04C140.92 1076.91 140.71 1077.64 140.29 1078.23C139.87 1078.82 139.312 1079.26 138.616 1079.56C137.92 1079.86 137.158 1080.01 136.33 1080.01C135.25 1080.01 134.38 1079.82 133.72 1079.44C133.072 1079.05 132.538 1078.54 132.118 1077.89L132.874 1077.3C133.246 1077.88 133.738 1078.32 134.35 1078.61C134.974 1078.9 135.634 1079.04 136.33 1079.04C136.942 1079.04 137.5 1078.93 138.004 1078.7C138.52 1078.48 138.928 1078.15 139.228 1077.71C139.54 1077.27 139.696 1076.71 139.696 1076.04V1074.18C139.336 1074.77 138.844 1075.24 138.22 1075.6C137.596 1075.95 136.942 1076.13 136.258 1076.13ZM136.6 1075.1C137.092 1075.1 137.56 1074.99 138.004 1074.76C138.448 1074.53 138.82 1074.24 139.12 1073.89C139.432 1073.53 139.624 1073.16 139.696 1072.78V1069.88C139.516 1069.42 139.258 1069.02 138.922 1068.67C138.586 1068.31 138.202 1068.04 137.77 1067.85C137.338 1067.64 136.9 1067.54 136.456 1067.54C135.76 1067.54 135.16 1067.73 134.656 1068.12C134.164 1068.49 133.78 1068.97 133.504 1069.56C133.24 1070.13 133.108 1070.73 133.108 1071.36C133.108 1072.03 133.264 1072.65 133.576 1073.23C133.888 1073.79 134.308 1074.25 134.836 1074.6C135.364 1074.93 135.952 1075.1 136.6 1075.1ZM147.385 1076.13C146.737 1076.13 146.143 1075.99 145.603 1075.73C145.075 1075.47 144.613 1075.11 144.217 1074.67C143.833 1074.21 143.533 1073.7 143.317 1073.12C143.101 1072.54 142.993 1071.95 142.993 1071.34C142.993 1070.46 143.179 1069.66 143.551 1068.93C143.923 1068.18 144.433 1067.59 145.081 1067.14C145.741 1066.69 146.497 1066.46 147.349 1066.46C148.153 1066.46 148.849 1066.66 149.437 1067.07C150.037 1067.48 150.541 1067.98 150.949 1068.58V1066.62H152.047V1076.04C152.047 1076.91 151.837 1077.64 151.417 1078.23C150.997 1078.82 150.439 1079.26 149.743 1079.56C149.047 1079.86 148.285 1080.01 147.457 1080.01C146.377 1080.01 145.507 1079.82 144.847 1079.44C144.199 1079.05 143.665 1078.54 143.245 1077.89L144.001 1077.3C144.373 1077.88 144.865 1078.32 145.477 1078.61C146.101 1078.9 146.761 1079.04 147.457 1079.04C148.069 1079.04 148.627 1078.93 149.131 1078.7C149.647 1078.48 150.055 1078.15 150.355 1077.71C150.667 1077.27 150.823 1076.71 150.823 1076.04V1074.18C150.463 1074.77 149.971 1075.24 149.347 1075.6C148.723 1075.95 148.069 1076.13 147.385 1076.13ZM147.727 1075.1C148.219 1075.1 148.687 1074.99 149.131 1074.76C149.575 1074.53 149.947 1074.24 150.247 1073.89C150.559 1073.53 150.751 1073.16 150.823 1072.78V1069.88C150.643 1069.42 150.385 1069.02 150.049 1068.67C149.713 1068.31 149.329 1068.04 148.897 1067.85C148.465 1067.64 148.027 1067.54 147.583 1067.54C146.887 1067.54 146.287 1067.73 145.783 1068.12C145.291 1068.49 144.907 1068.97 144.631 1069.56C144.367 1070.13 144.235 1070.73 144.235 1071.36C144.235 1072.03 144.391 1072.65 144.703 1073.23C145.015 1073.79 145.435 1074.25 145.963 1074.6C146.491 1074.93 147.079 1075.1 147.727 1075.1ZM153.994 1073.3C153.994 1072.72 154.162 1072.23 154.498 1071.81C154.834 1071.37 155.296 1071.04 155.884 1070.8C156.484 1070.56 157.174 1070.44 157.954 1070.44C158.41 1070.44 158.884 1070.48 159.376 1070.56C159.868 1070.64 160.306 1070.74 160.69 1070.87V1070.08C160.69 1069.29 160.456 1068.66 159.988 1068.19C159.52 1067.72 158.872 1067.49 158.044 1067.49C157.552 1067.49 157.06 1067.58 156.568 1067.77C156.076 1067.95 155.566 1068.22 155.038 1068.58L154.57 1067.72C155.182 1067.3 155.782 1066.99 156.37 1066.78C156.958 1066.57 157.558 1066.46 158.17 1066.46C159.322 1066.46 160.234 1066.79 160.906 1067.45C161.578 1068.11 161.914 1069.02 161.914 1070.19V1074.52C161.914 1074.85 162.064 1075.02 162.364 1075.03V1076C162.1 1076.04 161.914 1076.05 161.806 1076.04C161.506 1076.02 161.278 1075.93 161.122 1075.75C160.966 1075.57 160.882 1075.38 160.87 1075.17L160.852 1074.49C160.432 1075.03 159.886 1075.45 159.214 1075.75C158.542 1076.04 157.858 1076.18 157.162 1076.18C156.55 1076.18 156.004 1076.05 155.524 1075.8C155.044 1075.54 154.666 1075.19 154.39 1074.76C154.126 1074.31 153.994 1073.83 153.994 1073.3ZM160.276 1074.02C160.552 1073.7 160.69 1073.4 160.69 1073.12V1071.75C159.862 1071.43 158.998 1071.27 158.098 1071.27C157.222 1071.27 156.514 1071.44 155.974 1071.79C155.434 1072.14 155.164 1072.61 155.164 1073.21C155.164 1073.73 155.362 1074.19 155.758 1074.61C156.166 1075.03 156.73 1075.24 157.45 1075.24C158.038 1075.24 158.584 1075.13 159.088 1074.9C159.604 1074.67 160 1074.38 160.276 1074.02ZM168.321 1076.13C167.673 1076.13 167.079 1075.99 166.539 1075.73C166.011 1075.47 165.549 1075.11 165.153 1074.67C164.769 1074.21 164.469 1073.7 164.253 1073.12C164.037 1072.54 163.929 1071.95 163.929 1071.34C163.929 1070.46 164.115 1069.66 164.487 1068.93C164.859 1068.18 165.369 1067.59 166.017 1067.14C166.677 1066.69 167.433 1066.46 168.285 1066.46C169.089 1066.46 169.785 1066.66 170.373 1067.07C170.973 1067.48 171.477 1067.98 171.885 1068.58V1066.62H172.983V1076.04C172.983 1076.91 172.773 1077.64 172.353 1078.23C171.933 1078.82 171.375 1079.26 170.679 1079.56C169.983 1079.86 169.221 1080.01 168.393 1080.01C167.313 1080.01 166.443 1079.82 165.783 1079.44C165.135 1079.05 164.601 1078.54 164.181 1077.89L164.937 1077.3C165.309 1077.88 165.801 1078.32 166.413 1078.61C167.037 1078.9 167.697 1079.04 168.393 1079.04C169.005 1079.04 169.563 1078.93 170.067 1078.7C170.583 1078.48 170.991 1078.15 171.291 1077.71C171.603 1077.27 171.759 1076.71 171.759 1076.04V1074.18C171.399 1074.77 170.907 1075.24 170.283 1075.6C169.659 1075.95 169.005 1076.13 168.321 1076.13ZM168.663 1075.1C169.155 1075.1 169.623 1074.99 170.067 1074.76C170.511 1074.53 170.883 1074.24 171.183 1073.89C171.495 1073.53 171.687 1073.16 171.759 1072.78V1069.88C171.579 1069.42 171.321 1069.02 170.985 1068.67C170.649 1068.31 170.265 1068.04 169.833 1067.85C169.401 1067.64 168.963 1067.54 168.519 1067.54C167.823 1067.54 167.223 1067.73 166.719 1068.12C166.227 1068.49 165.843 1068.97 165.567 1069.56C165.303 1070.13 165.171 1070.73 165.171 1071.36C165.171 1072.03 165.327 1072.65 165.639 1073.23C165.951 1073.79 166.371 1074.25 166.899 1074.6C167.427 1074.93 168.015 1075.1 168.663 1075.1ZM179.736 1076.18C178.836 1076.18 178.032 1075.96 177.324 1075.51C176.616 1075.07 176.058 1074.48 175.65 1073.73C175.242 1072.99 175.038 1072.17 175.038 1071.28C175.038 1070.41 175.236 1069.6 175.632 1068.87C176.04 1068.14 176.598 1067.56 177.306 1067.13C178.014 1066.68 178.818 1066.46 179.718 1066.46C180.642 1066.46 181.452 1066.68 182.148 1067.13C182.844 1067.57 183.384 1068.16 183.768 1068.89C184.164 1069.61 184.362 1070.4 184.362 1071.27C184.362 1071.46 184.356 1071.62 184.344 1071.75H176.316C176.376 1072.42 176.568 1073.02 176.892 1073.55C177.216 1074.07 177.63 1074.48 178.134 1074.79C178.638 1075.09 179.19 1075.24 179.79 1075.24C180.402 1075.24 180.978 1075.09 181.518 1074.78C182.058 1074.46 182.442 1074.06 182.67 1073.55L183.732 1073.84C183.54 1074.3 183.24 1074.7 182.832 1075.06C182.436 1075.41 181.974 1075.69 181.446 1075.89C180.918 1076.08 180.348 1076.18 179.736 1076.18ZM176.28 1070.87H183.21C183.162 1070.2 182.976 1069.6 182.652 1069.09C182.328 1068.56 181.914 1068.15 181.41 1067.86C180.906 1067.56 180.348 1067.41 179.736 1067.41C179.124 1067.41 178.566 1067.56 178.062 1067.86C177.558 1068.15 177.144 1068.56 176.82 1069.09C176.508 1069.6 176.328 1070.2 176.28 1070.87Z" fill="#183251"/>
</svg>
